<mxfile host="app.diagrams.net" modified="2021-11-15T12:58:06.885Z" agent="5.0 (Windows NT 10.0; Win64; x64) AppleWebKit/537.36 (KHTML, like Gecko) Chrome/95.0.4638.69 Safari/537.36" etag="qUa5d2XKYBzOFrZkBJKI" version="15.7.3" type="github">
  <diagram id="D520OWlQWmqGKf1R0sh2" name="Page-1">
    <mxGraphModel dx="1550" dy="769" grid="1" gridSize="10" guides="1" tooltips="1" connect="1" arrows="1" fold="1" page="1" pageScale="1" pageWidth="827" pageHeight="1169" math="0" shadow="0">
      <root>
        <mxCell id="0" />
        <mxCell id="1" parent="0" />
        <mxCell id="3WDLvuDNipePncLa-vWL-2" value="&lt;font style=&quot;font-size: 20px;&quot;&gt;项目需求调研，实施方案设计&lt;/font&gt;" style="rounded=0;whiteSpace=wrap;html=1;absoluteArcSize=1;arcSize=14;strokeWidth=2;fontSize=20;" parent="1" vertex="1">
          <mxGeometry x="160" y="280" width="640" height="50" as="geometry" />
        </mxCell>
        <mxCell id="3WDLvuDNipePncLa-vWL-4" value="&lt;span style=&quot;font-size: 20px;&quot;&gt;新增监测&lt;br style=&quot;font-size: 20px;&quot;&gt;点位选取&lt;/span&gt;" style="rounded=0;whiteSpace=wrap;html=1;absoluteArcSize=1;arcSize=14;strokeWidth=2;fontSize=20;" parent="1" vertex="1">
          <mxGeometry x="160" y="360" width="130" height="50" as="geometry" />
        </mxCell>
        <mxCell id="3WDLvuDNipePncLa-vWL-5" value="&lt;span style=&quot;font-size: 20px&quot;&gt;数据预处理方法实现与优化&lt;/span&gt;" style="rounded=0;whiteSpace=wrap;html=1;absoluteArcSize=1;arcSize=14;strokeWidth=2;fontSize=20;" parent="1" vertex="1">
          <mxGeometry x="500" y="360" width="130" height="50" as="geometry" />
        </mxCell>
        <mxCell id="3WDLvuDNipePncLa-vWL-6" value="&lt;span style=&quot;font-size: 20px;&quot;&gt;因子选取工作&lt;br style=&quot;font-size: 20px;&quot;&gt;实现与优化&lt;/span&gt;" style="rounded=0;whiteSpace=wrap;html=1;absoluteArcSize=1;arcSize=14;strokeWidth=2;fontSize=20;" parent="1" vertex="1">
          <mxGeometry x="500" y="440" width="130" height="50" as="geometry" />
        </mxCell>
        <mxCell id="3WDLvuDNipePncLa-vWL-8" value="&lt;span style=&quot;font-size: 20px;&quot;&gt;模型选择与调优&lt;/span&gt;" style="rounded=0;whiteSpace=wrap;html=1;absoluteArcSize=1;arcSize=14;strokeWidth=2;fontSize=20;" parent="1" vertex="1">
          <mxGeometry x="500" y="520" width="130" height="130" as="geometry" />
        </mxCell>
        <mxCell id="3WDLvuDNipePncLa-vWL-14" value="&lt;span style=&quot;font-size: 20px;&quot;&gt;上线20个&lt;br style=&quot;font-size: 20px;&quot;&gt;新增点位&lt;/span&gt;" style="rounded=0;whiteSpace=wrap;html=1;absoluteArcSize=1;arcSize=14;strokeWidth=2;fontSize=20;" parent="1" vertex="1">
          <mxGeometry x="160" y="520" width="130" height="50" as="geometry" />
        </mxCell>
        <mxCell id="3WDLvuDNipePncLa-vWL-15" value="&lt;span style=&quot;font-size: 20px;&quot;&gt;数据预处理&lt;br style=&quot;font-size: 20px;&quot;&gt;功能上线&lt;/span&gt;" style="rounded=0;whiteSpace=wrap;html=1;absoluteArcSize=1;arcSize=14;strokeWidth=2;fontSize=20;" parent="1" vertex="1">
          <mxGeometry x="330" y="520" width="130" height="50" as="geometry" />
        </mxCell>
        <mxCell id="3WDLvuDNipePncLa-vWL-16" value="&lt;span style=&quot;font-size: 20px;&quot;&gt;因子选取及&lt;br style=&quot;font-size: 20px;&quot;&gt;模型升级上线&lt;br style=&quot;font-size: 20px;&quot;&gt;&lt;/span&gt;" style="rounded=0;whiteSpace=wrap;html=1;absoluteArcSize=1;arcSize=14;strokeWidth=2;fontSize=20;" parent="1" vertex="1">
          <mxGeometry x="330" y="600" width="130" height="50" as="geometry" />
        </mxCell>
        <mxCell id="3WDLvuDNipePncLa-vWL-17" value="&lt;span style=&quot;font-size: 20px;&quot;&gt;上线50个&lt;br style=&quot;font-size: 20px;&quot;&gt;新增点位&lt;/span&gt;" style="rounded=0;whiteSpace=wrap;html=1;absoluteArcSize=1;arcSize=14;strokeWidth=2;fontSize=20;" parent="1" vertex="1">
          <mxGeometry x="160" y="600" width="130" height="130" as="geometry" />
        </mxCell>
        <mxCell id="3WDLvuDNipePncLa-vWL-18" value="&lt;span style=&quot;font-size: 20px;&quot;&gt;根据模型效果&lt;br style=&quot;font-size: 20px;&quot;&gt;持续迭代升级&lt;br style=&quot;font-size: 20px;&quot;&gt;&lt;/span&gt;" style="rounded=0;whiteSpace=wrap;html=1;absoluteArcSize=1;arcSize=14;strokeWidth=2;fontSize=20;" parent="1" vertex="1">
          <mxGeometry x="500" y="680" width="130" height="210" as="geometry" />
        </mxCell>
        <mxCell id="3WDLvuDNipePncLa-vWL-19" value="&lt;span style=&quot;font-size: 20px;&quot;&gt;上线全部&lt;br style=&quot;font-size: 20px;&quot;&gt;新增点位&lt;/span&gt;" style="rounded=0;whiteSpace=wrap;html=1;absoluteArcSize=1;arcSize=14;strokeWidth=2;fontSize=20;" parent="1" vertex="1">
          <mxGeometry x="160" y="760" width="130" height="50" as="geometry" />
        </mxCell>
        <mxCell id="3WDLvuDNipePncLa-vWL-20" value="&lt;span style=&quot;font-size: 20px;&quot;&gt;在线预测功能&lt;br style=&quot;font-size: 20px;&quot;&gt;升级与调优&lt;br style=&quot;font-size: 20px;&quot;&gt;&lt;/span&gt;" style="rounded=0;whiteSpace=wrap;html=1;absoluteArcSize=1;arcSize=14;strokeWidth=2;fontSize=20;" parent="1" vertex="1">
          <mxGeometry x="330" y="680" width="130" height="50" as="geometry" />
        </mxCell>
        <mxCell id="3WDLvuDNipePncLa-vWL-21" value="&lt;span style=&quot;font-size: 20px;&quot;&gt;在线预测功能&lt;br style=&quot;font-size: 20px;&quot;&gt;持续迭代升级&lt;br style=&quot;font-size: 20px;&quot;&gt;&lt;/span&gt;" style="rounded=0;whiteSpace=wrap;html=1;absoluteArcSize=1;arcSize=14;strokeWidth=2;fontSize=20;" parent="1" vertex="1">
          <mxGeometry x="330" y="760" width="130" height="130" as="geometry" />
        </mxCell>
        <mxCell id="3WDLvuDNipePncLa-vWL-22" value="&lt;span style=&quot;font-size: 20px;&quot;&gt;基于因果推断&lt;br style=&quot;font-size: 20px;&quot;&gt;的滑坡体形变&lt;br style=&quot;font-size: 20px;&quot;&gt;诱因分析&lt;/span&gt;" style="rounded=0;whiteSpace=wrap;html=1;absoluteArcSize=1;arcSize=14;strokeWidth=2;dashed=1;fontSize=20;" parent="1" vertex="1">
          <mxGeometry x="670" y="360" width="130" height="210" as="geometry" />
        </mxCell>
        <mxCell id="3WDLvuDNipePncLa-vWL-23" value="&lt;span style=&quot;font-size: 20px;&quot;&gt;完成基于多源监测数据的滑坡动态形变预测功能模块组件维护成果报告&lt;/span&gt;" style="rounded=0;whiteSpace=wrap;html=1;absoluteArcSize=1;arcSize=14;strokeWidth=2;fontSize=20;" parent="1" vertex="1">
          <mxGeometry x="160" y="920" width="640" height="50" as="geometry" />
        </mxCell>
        <mxCell id="3WDLvuDNipePncLa-vWL-24" value="&lt;span style=&quot;font-size: 20px;&quot;&gt;多滑坡体模型&lt;br style=&quot;font-size: 20px;&quot;&gt;构建与模型迁移&lt;/span&gt;" style="rounded=0;whiteSpace=wrap;html=1;absoluteArcSize=1;arcSize=14;strokeWidth=2;dashed=1;fontSize=20;" parent="1" vertex="1">
          <mxGeometry x="670" y="600" width="130" height="130" as="geometry" />
        </mxCell>
        <mxCell id="3WDLvuDNipePncLa-vWL-25" value="&lt;font style=&quot;font-size: 20px;&quot;&gt;2021年9月&lt;/font&gt;" style="text;html=1;align=left;verticalAlign=middle;resizable=0;points=[];autosize=1;strokeColor=none;fillColor=none;fontSize=20;" parent="1" vertex="1">
          <mxGeometry x="20" y="290" width="110" height="30" as="geometry" />
        </mxCell>
        <mxCell id="3WDLvuDNipePncLa-vWL-26" value="&lt;font style=&quot;font-size: 20px;&quot;&gt;2021年10月&lt;/font&gt;" style="text;html=1;align=left;verticalAlign=middle;resizable=0;points=[];autosize=1;strokeColor=none;fillColor=none;fontSize=20;" parent="1" vertex="1">
          <mxGeometry x="20" y="370" width="120" height="30" as="geometry" />
        </mxCell>
        <mxCell id="3WDLvuDNipePncLa-vWL-27" value="&lt;font style=&quot;font-size: 20px;&quot;&gt;2021年11月&lt;/font&gt;" style="text;html=1;align=left;verticalAlign=middle;resizable=0;points=[];autosize=1;strokeColor=none;fillColor=none;fontSize=20;" parent="1" vertex="1">
          <mxGeometry x="20" y="450" width="120" height="30" as="geometry" />
        </mxCell>
        <mxCell id="3WDLvuDNipePncLa-vWL-28" value="&lt;font style=&quot;font-size: 20px;&quot;&gt;2021年12月~&lt;br style=&quot;font-size: 20px;&quot;&gt;2022年1月&lt;br style=&quot;font-size: 20px;&quot;&gt;&lt;/font&gt;" style="text;html=1;align=left;verticalAlign=middle;resizable=0;points=[];autosize=1;strokeColor=none;fillColor=none;fontSize=20;" parent="1" vertex="1">
          <mxGeometry x="20" y="520" width="130" height="50" as="geometry" />
        </mxCell>
        <mxCell id="3WDLvuDNipePncLa-vWL-29" value="&lt;font style=&quot;font-size: 20px;&quot;&gt;2022年2月&lt;br style=&quot;font-size: 20px;&quot;&gt;&lt;/font&gt;" style="text;html=1;align=left;verticalAlign=middle;resizable=0;points=[];autosize=1;strokeColor=none;fillColor=none;fontSize=20;" parent="1" vertex="1">
          <mxGeometry x="20" y="610" width="110" height="30" as="geometry" />
        </mxCell>
        <mxCell id="3WDLvuDNipePncLa-vWL-30" value="&lt;font style=&quot;font-size: 20px;&quot;&gt;2022年3月&lt;br style=&quot;font-size: 20px;&quot;&gt;&lt;/font&gt;" style="text;html=1;align=left;verticalAlign=middle;resizable=0;points=[];autosize=1;strokeColor=none;fillColor=none;fontSize=20;" parent="1" vertex="1">
          <mxGeometry x="20" y="685" width="110" height="30" as="geometry" />
        </mxCell>
        <mxCell id="3WDLvuDNipePncLa-vWL-31" value="&lt;font style=&quot;font-size: 20px;&quot;&gt;2022年4月&lt;br style=&quot;font-size: 20px;&quot;&gt;总体入汛，&lt;br style=&quot;font-size: 20px;&quot;&gt;完成上线工作&lt;br style=&quot;font-size: 20px;&quot;&gt;&lt;/font&gt;" style="text;html=1;align=left;verticalAlign=middle;resizable=0;points=[];autosize=1;strokeColor=none;fillColor=none;fontSize=20;" parent="1" vertex="1">
          <mxGeometry x="20" y="745" width="140" height="80" as="geometry" />
        </mxCell>
        <mxCell id="3WDLvuDNipePncLa-vWL-32" value="&lt;font style=&quot;font-size: 20px;&quot;&gt;2022年5月~&lt;br style=&quot;font-size: 20px;&quot;&gt;2022年6月&lt;br style=&quot;font-size: 20px;&quot;&gt;&lt;/font&gt;" style="text;html=1;align=left;verticalAlign=middle;resizable=0;points=[];autosize=1;strokeColor=none;fillColor=none;fontSize=20;" parent="1" vertex="1">
          <mxGeometry x="20" y="835" width="120" height="50" as="geometry" />
        </mxCell>
        <mxCell id="3WDLvuDNipePncLa-vWL-33" value="&lt;font style=&quot;font-size: 20px;&quot;&gt;2022年7月&lt;br style=&quot;font-size: 20px;&quot;&gt;&lt;/font&gt;" style="text;html=1;align=left;verticalAlign=middle;resizable=0;points=[];autosize=1;strokeColor=none;fillColor=none;fontSize=20;" parent="1" vertex="1">
          <mxGeometry x="20" y="930" width="110" height="30" as="geometry" />
        </mxCell>
        <mxCell id="3WDLvuDNipePncLa-vWL-34" value="&lt;font style=&quot;font-size: 20px;&quot;&gt;坡面监测多源变形数据的综合表征&lt;/font&gt;" style="rounded=0;whiteSpace=wrap;html=1;absoluteArcSize=1;arcSize=14;strokeWidth=2;dashed=1;fontSize=20;" parent="1" vertex="1">
          <mxGeometry x="670" y="760" width="130" height="130" as="geometry" />
        </mxCell>
      </root>
    </mxGraphModel>
  </diagram>
</mxfile>
